<svg xmlns="http://www.w3.org/2000/svg" viewBox="0 0 24 24" fill="none" stroke="currentColor" stroke-width="1.5" stroke-linecap="round" stroke-linejoin="round"><path d="M6 6 Q5 7 4 10 Q3 14 4 18 Q6 20 9 21 L10 19 Q8 18 7 17 Q8 17 9 17.5 Q11 18 12 18 Q13 18 15 17.5 Q16 17 17 17 Q16 18 14 19 L15 21 Q18 20 20 18 Q21 14 20 10 Q19 7 18 6 Q16 5 14 5 L13.5 6 Q12 5.8 12 5.8 Q12 5.8 10.5 6 L10 5 Q8 5 6 6 Z"></path><circle cx="9.5" cy="13" r="1.2" fill="#527273" stroke="#527273"></circle><circle cx="14.5" cy="13" r="1.2" fill="#527273" stroke="#527273"></circle></svg>