<svg xmlns="http://www.w3.org/2000/svg" viewBox="0 0 24 24" fill="none" stroke="currentColor" stroke-width="1.5" stroke-linecap="round" stroke-linejoin="round"><path d="M12 2 A10 10 0 0 0 8.8 21.5 C9.3 21.6 9.5 21.3 9.5 21 V19 C6.7 19.6 6.1 17.7 6.1 17.7 C5.6 16.6 5 16.3 5 16.3 C4.1 15.7 5.1 15.7 5.1 15.7 C6.1 15.8 6.6 16.7 6.6 16.7 C7.5 18.2 9 17.8 9.6 17.5 C9.7 16.8 10 16.3 10.3 16.1 C8.1 15.8 5.8 15 5.8 11.2 C5.8 10.1 6.2 9.2 6.8 8.5 C6.7 8.2 6.4 7.2 6.9 5.8 C6.9 5.8 7.7 5.5 9.5 6.7 C10.3 6.5 11.2 6.4 12 6.4 C12.8 6.4 13.7 6.5 14.5 6.7 C16.3 5.5 17.1 5.8 17.1 5.8 C17.6 7.2 17.3 8.2 17.2 8.5 C17.8 9.2 18.2 10.1 18.2 11.2 C18.2 15 15.9 15.8 13.7 16.1 C14.1 16.4 14.4 17 14.4 17.9 V21 C14.4 21.3 14.7 21.6 15.2 21.5 A10 10 0 0 0 12 2 Z" fill="#527273" stroke="#527273"></path></svg>