<svg xmlns="http://www.w3.org/2000/svg" viewBox="0 0 640 220" fill="none" font-family="&#39;JetBrains Mono&#39;, monospace">
  
  <g transform="translate(20,40)">
    <rect width="120" height="32" rx="4" fill="#FFFFFF" stroke="#E6E6E9"></rect>
    <text x="14" y="20" font-size="11" fill="#141416">postgres · orders</text>
    <rect y="46" width="120" height="32" rx="4" fill="#FFFFFF" stroke="#E6E6E9"></rect>
    <text x="14" y="66" font-size="11" fill="#141416">mysql · payments</text>
    <rect y="92" width="120" height="32" rx="4" fill="#FFFFFF" stroke="#E6E6E9"></rect>
    <text x="14" y="112" font-size="11" fill="#141416">kafka · events</text>
  </g>
  
  <g stroke="#B3B3B9" stroke-width="1" fill="none">
    <path d="M 140 56 L 240 110"></path>
    <path d="M 140 102 L 240 110"></path>
    <path d="M 140 148 L 240 110"></path>
  </g>
  
  <g transform="translate(240,70)">
    <rect width="160" height="80" rx="6" fill="#FAFAFB" stroke="#141416"></rect>
    <rect x="16" y="14" width="8" height="8" rx="1.5" stroke="#141416" stroke-width="1.5" fill="none"></rect>
    <path d="M 23 21 L 29 27" stroke="#141416" stroke-width="1.8" stroke-linecap="round"></path>
    <rect x="28" y="26" width="8" height="8" rx="1.5" fill="#527273"></rect>
    <text x="44" y="26" font-size="12" font-weight="600" font-family="&#39;Inter Tight&#39;, sans-serif" fill="#141416">DataShuttle</text>
    <text x="16" y="52" font-size="10" fill="#6B6B73">CREATE PIPELINE ...</text>
    <text x="16" y="68" font-size="10" fill="#6B6B73">exactly-once</text>
  </g>
  
  <g stroke="#B3B3B9" stroke-width="1" fill="none">
    <path d="M 400 110 L 500 110"></path>
    <path d="M 495 106 L 500 110 L 495 114"></path>
  </g>
  
  <g transform="translate(500,90)">
    <rect width="120" height="40" rx="4" fill="#FFFFFF" stroke="#E6E6E9"></rect>
    <text x="14" y="18" font-size="11" font-weight="600" font-family="&#39;Inter Tight&#39;, sans-serif" fill="#141416">Apache Iceberg</text>
    <text x="14" y="32" font-size="10" fill="#6B6B73">s3://lake/warehouse</text>
  </g>
  
  <text x="20" y="28" font-size="9" letter-spacing="0.08em" fill="#8D8D95">sources</text>
  <text x="244" y="60" font-size="9" letter-spacing="0.08em" fill="#8D8D95">runtime</text>
  <text x="504" y="82" font-size="9" letter-spacing="0.08em" fill="#8D8D95">destination</text>
</svg>