<svg xmlns="http://www.w3.org/2000/svg" viewBox="0 0 400 300" fill="none">
  
  <rect width="400" height="300" fill="#FBFAF7"></rect>
  <g font-family="&#39;JetBrains Mono&#39;, monospace" font-size="11">
    <rect x="20" y="40" width="100" height="36" rx="2" fill="#FFF4EC" stroke="#F47617"></rect>
    <text x="70" y="63" text-anchor="middle" fill="#0F0F10">KAFKA</text>

    <rect x="140" y="40" width="100" height="36" rx="2" fill="#FFF4EC" stroke="#F47617"></rect>
    <text x="190" y="63" text-anchor="middle" fill="#0F0F10">DEBEZIUM</text>

    <rect x="260" y="40" width="120" height="36" rx="2" fill="#FFF4EC" stroke="#F47617"></rect>
    <text x="320" y="63" text-anchor="middle" fill="#0F0F10">SCHEMA REG</text>

    <rect x="20" y="120" width="100" height="36" rx="2" fill="#FFF4EC" stroke="#F47617"></rect>
    <text x="70" y="143" text-anchor="middle" fill="#0F0F10">FLINK</text>

    <rect x="140" y="120" width="100" height="36" rx="2" fill="#FFF4EC" stroke="#F47617"></rect>
    <text x="190" y="143" text-anchor="middle" fill="#0F0F10">AIRFLOW</text>

    <rect x="260" y="120" width="120" height="36" rx="2" fill="#FFF4EC" stroke="#F47617"></rect>
    <text x="320" y="143" text-anchor="middle" fill="#0F0F10">CUSTOM GLUE</text>

    
    <g stroke="#B3412A" stroke-width="1" opacity="0.7">
      <path d="M70 76 C 90 100, 170 90, 190 120" fill="none"></path>
      <path d="M190 76 C 200 100, 130 110, 70 120" fill="none"></path>
      <path d="M320 76 C 280 100, 230 110, 190 120" fill="none"></path>
      <path d="M70 156 C 110 180, 260 180, 320 156" fill="none"></path>
      <path d="M190 156 C 200 200, 300 200, 320 156" fill="none"></path>
      <path d="M70 156 C 150 220, 250 220, 320 156" fill="none"></path>
      <path d="M140 76 C 150 100, 250 110, 260 120" fill="none"></path>
    </g>

    <rect x="140" y="220" width="120" height="40" rx="2" fill="#FBFAF7" stroke="#0F0F10"></rect>
    <text x="200" y="245" text-anchor="middle" fill="#0F0F10" font-weight="600">ICEBERG</text>

    <text x="200" y="290" text-anchor="middle" fill="#6B6B73" letter-spacing="0.12em">// 6 TOOLS, 1 DESTINATION</text>
  </g>
</svg>