<svg xmlns="http://www.w3.org/2000/svg" viewBox="0 0 600 200" fill="none">
  
  <g font-family="&#39;JetBrains Mono&#39;, monospace" font-size="11" fill="#44444A" letter-spacing="0.12em">
    
    <g>
      <rect x="20" y="30" width="110" height="28" rx="2" fill="#FBFAF7" stroke="#D9D3C2"></rect>
      <text x="75" y="48" text-anchor="middle" fill="#0F0F10">POSTGRES</text>
      <rect x="20" y="85" width="110" height="28" rx="2" fill="#FBFAF7" stroke="#D9D3C2"></rect>
      <text x="75" y="103" text-anchor="middle" fill="#0F0F10">MONGODB</text>
      <rect x="20" y="140" width="110" height="28" rx="2" fill="#FBFAF7" stroke="#D9D3C2"></rect>
      <text x="75" y="158" text-anchor="middle" fill="#0F0F10">KAFKA</text>
    </g>
    
    <path d="M130 44 L240 100" stroke="#F47617" stroke-width="1.5"></path>
    <path d="M130 99 L240 100" stroke="#F47617" stroke-width="1.5"></path>
    <path d="M130 154 L240 100" stroke="#F47617" stroke-width="1.5"></path>
    
    <rect x="240" y="75" width="120" height="50" rx="2" fill="#0F0F10"></rect>
    <text x="300" y="99" text-anchor="middle" fill="#FBFAF7" font-weight="600" letter-spacing="0.16em">DATASHUTTLE</text>
    <text x="300" y="114" text-anchor="middle" fill="#FF9A4A" font-size="9">// one binary</text>
    
    <path d="M360 100 L470 100" stroke="#0F0F10" stroke-width="1.5" marker-end="url(#arrow)"></path>
    
    <rect x="470" y="75" width="110" height="50" rx="2" fill="#FBFAF7" stroke="#0F0F10" stroke-width="1.5"></rect>
    <text x="525" y="99" text-anchor="middle" fill="#0F0F10" font-weight="600">ICEBERG</text>
    <text x="525" y="114" text-anchor="middle" fill="#6B6B73" font-size="9">s3://lakehouse</text>
  </g>
  <defs>
    <marker id="arrow" viewBox="0 0 10 10" refX="9" refY="5" markerWidth="6" markerHeight="6" orient="auto">
      <path d="M 0 0 L 10 5 L 0 10 z" fill="#0F0F10"></path>
    </marker>
  </defs>
</svg>